<?xml version="1.0" encoding="utf-8"?>
<svg xmlns="http://www.w3.org/2000/svg" viewBox="74.2351 1.021 351.5298 236.6565" width="351.53px" height="236.656px" preserveAspectRatio="none"><g id="object-1" transform="matrix(2.0638160705566406, 0, 0, 1.9029899835586548, -718.3321533203125, 1.0210440158843994)"><path d="M483.79,51.14c-.41-18.26-5.64-35.8-14.46-51.14-8.76,15.46-13.88,33.05-14.26,51.14-.42,19.73,4.71,39.4,14.22,56.18,9.53-16.7,14.95-36.32,14.5-56.18Z"/><path d="M461.93,107.37c.26,0,.51,0,.76,0-2.96-13.78-15.21-24.1-29.88-24.1-.26,0-.51,0-.76,0,2.96,13.78,15.21,24.1,29.88,24.1Z"/><path d="M475.99,106.5c-.06.25-.12.49-.18.74,14.09.49,27.09-8.88,30.66-23.1.06-.25.12-.49.18-.74-14.08-.48-27.09,8.88-30.66,23.1Z"/><path d="M384.04,102.24c11.65,10.45,26.26,17.87,42.8,20.79,13.01,2.29,25.86,1.56,37.82-1.7-11.65-10.45-26.26-17.87-42.81-20.78-13.01-2.29-25.86-1.56-37.82,1.7Z"/><path d="M506.78,102.74c-12.66,3.8-23.81,10.23-33.03,18.51,15.1,4.1,31.49,4.17,47.58-.66,12.66-3.8,23.81-10.23,33.03-18.51-15.1-4.1-31.49-4.17-47.58.66Z"/></g></svg>