<?xml version="1.0" encoding="utf-8"?>
<svg xmlns="http://www.w3.org/2000/svg" viewBox="207.6677 119.1643 78.3232 110.9484" width="78.3232px" height="110.948px" preserveAspectRatio="none"><g data-name="Layer 1" transform="matrix(0.4598320424556732, 0, 0, 0.42399901151657104, 31.07839393615722, 119.1643295288086)" style="" id="object-0"><g><g><path d="M483.79,51.14c-.41-18.26-5.64-35.8-14.46-51.14-8.76,15.46-13.88,33.05-14.26,51.14-.42,19.73,4.71,39.4,14.22,56.18,9.53-16.7,14.95-36.32,14.5-56.18Z"/><path d="M461.93,107.37c.26,0,.51,0,.76,0-2.96-13.78-15.21-24.1-29.88-24.1-.26,0-.51,0-.76,0,2.96,13.78,15.21,24.1,29.88,24.1Z"/><path d="M475.99,106.5c-.06.25-.12.49-.18.74,14.09.49,27.09-8.88,30.66-23.1.06-.25.12-.49.18-.74-14.08-.48-27.09,8.88-30.66,23.1Z"/><path d="M384.04,102.24c11.65,10.45,26.26,17.87,42.8,20.79,13.01,2.29,25.86,1.56,37.82-1.7-11.65-10.45-26.26-17.87-42.81-20.78-13.01-2.29-25.86-1.56-37.82,1.7Z"/><path d="M506.78,102.74c-12.66,3.8-23.81,10.23-33.03,18.51,15.1,4.1,31.49,4.17,47.58-.66,12.66-3.8,23.81-10.23,33.03-18.51-15.1-4.1-31.49-4.17-47.58.66Z"/></g><path d="M470.48,132.48c17.36.9,31.17,6.99,41.43,18.26,10.26,11.27,15.67,25.25,16.23,41.94.79,20.4-3.72,36.69-13.53,48.87-5.41,6.76-11.61,11.81-18.6,15.13s-15.84,4.99-26.55,4.99c-20.4.11-35.96-6.6-46.67-20.12-9.58-11.95-14.09-28.24-13.53-48.87.68-17.7,6-32.18,15.98-43.46,9.98-11.27,23.93-16.91,41.85-16.91l3.38.17ZM488.1,251.86c8.88-6.02,13.15-13.72,15.85-18.6,3.83-6.92,5.41-12.83,6.34-16.4.55-2.11,2.8-11.13,2.45-23.17-.11-3.88-.59-11.39-3.04-20.46-.82-3.03-1.68-5.56-2.37-7.44-3.72-9.47-8.96-16.94-15.73-22.4-6.76-5.47-14.65-8.26-23.67-8.37-12.74.45-23.03,6.2-30.86,17.25-7.83,11.05-12.03,24.86-12.6,41.43-.23,8.34.56,16.03,2.37,23.08,1.8,7.05,3.89,12.54,6.26,16.49.23.45.45.79.68,1.01.68,1.22,1.69,2.94,3.04,4.9,2.72,3.94,7.16,10.37,14.88,14.8,2.73,1.57,9.02,5.07,17.59,4.82,8.96-.26,15.19-4.48,18.81-6.93Z"/></g></g></svg>