<?xml version="1.0" standalone="no"?>
<!DOCTYPE svg PUBLIC "-//W3C//DTD SVG 1.1//EN" "http://www.w3.org/Graphics/SVG/1.1/DTD/svg11.dtd">
<svg xmlns="http://www.w3.org/2000/svg" id="Layer_2" data-name="Layer 2" viewBox="0 0 950.88 261.67" width="950.8800048828125" height="261.6700134277344">
  <defs>
    <style>
      .cls-1 {
        fill: #000;
        stroke-width: 0px;
      }
    </style>
  </defs>
  <g id="Layer_1-2" data-name="Layer 1">
    <g>
      <g>
        <path class="cls-1" d="M483.79,51.14c-.41-18.26-5.64-35.8-14.46-51.14-8.76,15.46-13.88,33.05-14.26,51.14-.42,19.73,4.71,39.4,14.22,56.18,9.53-16.7,14.95-36.32,14.5-56.18Z"/>
        <path class="cls-1" d="M461.93,107.37c.26,0,.51,0,.76,0-2.96-13.78-15.21-24.1-29.88-24.1-.26,0-.51,0-.76,0,2.96,13.78,15.21,24.1,29.88,24.1Z"/>
        <path class="cls-1" d="M475.99,106.5c-.06.25-.12.49-.18.74,14.09.49,27.09-8.88,30.66-23.1.06-.25.12-.49.18-.74-14.08-.48-27.09,8.88-30.66,23.1Z"/>
        <path class="cls-1" d="M384.04,102.24c11.65,10.45,26.26,17.87,42.8,20.79,13.01,2.29,25.86,1.56,37.82-1.7-11.65-10.45-26.26-17.87-42.81-20.78-13.01-2.29-25.86-1.56-37.82,1.7Z"/>
        <path class="cls-1" d="M506.78,102.74c-12.66,3.8-23.81,10.23-33.03,18.51,15.1,4.1,31.49,4.17,47.58-.66,12.66-3.8,23.81-10.23,33.03-18.51-15.1-4.1-31.49-4.17-47.58.66Z"/>
      </g>
      <path class="cls-1" d="M0,117.49h33c-.27.13-.57.33-.9.6s-.8.87-1.4,1.8c-.6.93-.57,2.13.1,3.6.4.93,1,2.3,1.8,4.1s1.57,3.53,2.3,5.2c.73,1.67,1.43,3.17,2.1,4.5l20.8,45.4c7.47,16.53,14.33,31.73,20.6,45.6,1.6,3.2,2.6,5.33,3,6.4l16.4-46,17.8-49.4c2.27-6.4,4.2-11.87,5.8-16.4.13-.27.27-.63.4-1.1.13-.47.27-.83.4-1.1v-.2c.27-.67.17-1.23-.3-1.7s-.97-.77-1.5-.9l-.8-.4h8.6l1-.2h.6c-2.13.53-3.6,1.67-4.4,3.4-.13.27-.33.8-.6,1.6-.27.8-.47,1.33-.6,1.6-1.6,4.53-3.53,10-5.8,16.4l-17.8,49.4-17.6,49.6-6,16.2-2,6h-3.2c-1.47-3.07-2.4-5-2.8-5.8-.53-1.07-1.13-2.47-1.8-4.2-1.87-4.13-4.13-9.13-6.8-15l-20.8-45.4c-7.6-16.53-14.53-31.73-20.8-45.6-.67-1.33-1.47-3-2.4-5-.93-2-2-4.33-3.2-7-1.2-2.67-2.13-4.67-2.8-6-4.13-5.73-7.6-9.07-10.4-10Z"/>
      <path class="cls-1" d="M188.8,117.69h64.4c4.13.13,7.67.2,10.6.2h5.2v5.6c-.13-.4-.47-.93-1-1.6-.53-.67-1.13-1-1.8-1h-2.4c-2.93,0-6.47-.07-10.6-.2h-64.4c-3.2-.13-5.93-.2-8.2-.2v3.2c.13,4.4.2,9.8.2,16.2.13,14.93.27,31.4.4,49.4,0,11.2.07,18.6.2,22.2h59.6c.93-.13,1.6-.8,2-2l.8-2.2v11.2c-.27-2.53-1.13-3.87-2.6-4h-59.8v24.2c.13,4.8.2,8.87.2,12.2v7.6h86.2c.67,0,1.2-.33,1.6-1,.4-.67.67-1.33.8-2l.2-.8v6.8h-92.4l-23.6-.2c2.13-.13,3.8-1.13,5-3,1.2-1.87,1.87-3.73,2-5.6l.2-2.6c0-3.2-.07-7-.2-11.4,0-14.93-.07-31.4-.2-49.4-.13-17.87-.27-34.27-.4-49.2v-14c-.8-5.33-7.2-8.6-7.2-8.6l10.6.2"/>
      <path class="cls-1" d="M392.4,261.49h-92.8c4.4-.4,6.8-3.73,7.2-10,0-3.47-.07-7.73-.2-12.8,0-14.93-.07-31.4-.2-49.4-.13-17.87-.27-34.27-.4-49.2v-11h-.2c0-.8-.07-1.8-.2-3-.13-1.2-.8-2.87-2-5s-2.87-3.27-5-3.4c3.07-.13,7.6-.2,13.6-.2h18.6c-2.67,1.33-4.27,4.2-4.8,8.6v13.8c.13,14.93.27,31.4.4,49.4.13,17.87.2,34.33.2,49.4.13,6.27.2,11.67.2,16.2v3.6h66.8c.53-.13,1-.5,1.4-1.1.4-.6.67-1.23.8-1.9l.2-.8v6.8h-3.6Z"/>
      <path class="cls-1" d="M470.48,132.48c17.36.9,31.17,6.99,41.43,18.26,10.26,11.27,15.67,25.25,16.23,41.94.79,20.4-3.72,36.69-13.53,48.87-5.41,6.76-11.61,11.81-18.6,15.13s-15.84,4.99-26.55,4.99c-20.4.11-35.96-6.6-46.67-20.12-9.58-11.95-14.09-28.24-13.53-48.87.68-17.7,6-32.18,15.98-43.46,9.98-11.27,23.93-16.91,41.85-16.91l3.38.17ZM488.1,251.86c8.88-6.02,13.15-13.72,15.85-18.6,3.83-6.92,5.41-12.83,6.34-16.4.55-2.11,2.8-11.13,2.45-23.17-.11-3.88-.59-11.39-3.04-20.46-.82-3.03-1.68-5.56-2.37-7.44-3.72-9.47-8.96-16.94-15.73-22.4-6.76-5.47-14.65-8.26-23.67-8.37-12.74.45-23.03,6.2-30.86,17.25-7.83,11.05-12.03,24.86-12.6,41.43-.23,8.34.56,16.03,2.37,23.08,1.8,7.05,3.89,12.54,6.26,16.49.23.45.45.79.68,1.01.68,1.22,1.69,2.94,3.04,4.9,2.72,3.94,7.16,10.37,14.88,14.8,2.73,1.57,9.02,5.07,17.59,4.82,8.96-.26,15.19-4.48,18.81-6.93Z"/>
      <path class="cls-1" d="M662.19,120.29v19.8c.13,15.07.2,31.53.2,49.4.13,18,.2,34.47.2,49.4v22.4h-3c-.13-.13-2.47-2.93-7-8.4s-9.53-11.47-15-18-11.4-13.7-17.8-21.5c-6.4-7.8-11.47-14.03-15.2-18.7-11.2-14-21.53-26.87-31-38.6l-9-11.4c0,13.2.07,28.13.2,44.8v69h.2c-.27,1.07.27,1.87,1.6,2.4l1.8.6h-10c2.27-.27,3.4-1.2,3.4-2.8v-69.2c-.13-18-.2-34.53-.2-49.6v-19.2c-.13-.8-.57-1.47-1.3-2s-1.43-.87-2.1-1l-1-.2h7.6v.2c1.33,1.73,8.9,10.9,22.7,27.5,13.8,16.6,28.53,34.3,44.2,53.1,15.67,18.8,24.97,30,27.9,33.6,0-12.4-.07-26.53-.2-42.4,0-17.87-.07-34.33-.2-49.4v-20.2c0-.53-.3-1-.9-1.4-.6-.4-1.23-.67-1.9-.8l-.8-.2h9.8c-.13,0-.4.1-.8.3-.4.2-.67.3-.8.3-1.07.4-1.6,1.13-1.6,2.2Z"/>
      <path class="cls-1" d="M804.39,120.29v19.8c.13,15.07.2,31.53.2,49.4.13,18,.2,34.47.2,49.4v22.4h-3c-.13-.13-2.47-2.93-7-8.4s-9.53-11.47-15-18c-5.47-6.53-11.4-13.7-17.8-21.5-6.4-7.8-11.47-14.03-15.2-18.7-11.2-14-21.53-26.87-31-38.6l-9-11.4c0,13.2.07,28.13.2,44.8v69h.2c-.27,1.07.27,1.87,1.6,2.4l1.8.6h-10c2.27-.27,3.4-1.2,3.4-2.8v-69.2c-.13-18-.2-34.53-.2-49.6v-19.2c-.13-.8-.57-1.47-1.3-2s-1.43-.87-2.1-1l-1-.2h7.6v.2c1.33,1.73,8.9,10.9,22.7,27.5,13.8,16.6,28.53,34.3,44.2,53.1,15.67,18.8,24.97,30,27.9,33.6,0-12.4-.07-26.53-.2-42.4,0-17.87-.07-34.33-.2-49.4v-20.2c0-.53-.3-1-.9-1.4-.6-.4-1.23-.67-1.9-.8l-.8-.2h9.8c-.13,0-.4.1-.8.3s-.67.3-.8.3c-1.07.4-1.6,1.13-1.6,2.2Z"/>
      <path class="cls-1" d="M895.01,117.5c33.11,88.25,50.33,134.17,51.67,137.78.53,1.34,1.17,2.5,1.9,3.5.73,1,1.3,1.64,1.7,1.9l.6.6h-21.43c.13-.13.3-.37.5-.7.2-.33.4-1.13.6-2.4.2-1.27-.03-2.64-.7-4.1-.67-2.42-1.75-5.74-3.45-9.51,0,0-1.32-2.91-3.89-7.03,0,0,0,0,0,0,0,0-4.8-7.54-11.4-14.27-4.58-4.68-24.13-18.16-54.34-27.8-10.72,27.56-15.53,39.57-17.42,44-.12.28-.57,1.34-1.18,2.8-1.19,2.85-3.02,7.42-5.03,13.02-.67,1.87-1.07,3-1.2,3.4-.27.53-.37,1-.3,1.4.07.4.17.73.3,1l.2.4h-5.81c1.2-.93,1.94-1.87,2.2-2.8.53-1.2,1.13-2.67,1.8-4.41,1.74-4.41,3.81-9.68,6.21-15.82,5.74-14.55,12.08-30.57,19.02-48.06,6.81-17.49,13.08-33.58,18.82-48.26,2.4-6.14,4.47-11.41,6.21-15.82l1-2.4c0-.13-.03-.3-.1-.5-.07-.2-.17-.37-.3-.5-.53-1.2-1.24-2.24-2.1-3.1-.87-.87-1.64-1.43-2.3-1.7l-.8-.4c3.2-.13,6.41-.2,9.61-.2h9.41ZM913.44,209.92c-1.6-4.34-3-8.14-4.21-11.42-1.2-3.27-2.2-6.11-3-8.51-2.4-6.54-5.67-15.59-9.81-27.13-4.14-11.55-6.88-19.19-8.21-22.93-1.47-4.27-3.07-8.41-4.81-12.42-2.63,6.7-4.78,12.17-6.21,15.82-7.74,19.74-11.2,28.69-18.08,46.17-1.65,4.19-2.99,7.6-3.83,9.72,7.33.43,16.36,1.64,26.36,4.62,16.47,4.9,28.76,12.56,36.68,18.48-.36-.7-.71-1.4-1.07-2.1-.93-2.54-2.2-5.97-3.8-10.31Z"/>
    </g>
  </g>
</svg>